<svg width="1920" height="1000" viewBox="0 0 1920 1000" fill="none" xmlns="http://www.w3.org/2000/svg">
<rect width="1920" height="1000" fill="white"/>
<path d="M0 10.8804H1920V703.264C1920 867.146 1785.69 1000 1620 1000H0V10.8804Z" fill="url(#paint0_linear_0_1)"/>
<mask id="mask0_0_1" style="mask-type:alpha" maskUnits="userSpaceOnUse" x="0" y="11" width="1920" height="989">
<path d="M0 11H1920V1000H0V11Z" fill="url(#paint1_linear_0_1)"/>
</mask>
<g mask="url(#mask0_0_1)">
<path d="M-87 728.981C-87 585.311 30.7491 468.843 176 468.843C321.251 468.843 439 585.311 439 728.981C439 872.652 321.251 989.12 176 989.12H-87V728.981Z" fill="white" fill-opacity="0.07"/>
<path d="M2065 479.723C2065 623.394 1947.25 739.862 1802 739.862C1656.75 739.862 1539 623.394 1539 479.723C1539 336.052 1656.75 219.585 1802 219.585H2065V479.723Z" fill="white" fill-opacity="0.03"/>
<path d="M-87 205.737C-87 62.0664 30.7491 -54.4016 176 -54.4016C321.251 -54.4016 439 62.0664 439 205.737C439 349.408 321.251 465.875 176 465.875H-87V205.737Z" fill="white" fill-opacity="0.03"/>
<path d="M439 0H989V548.961C989 740.158 832.3 895.153 639 895.153H439V0Z" fill="white" fill-opacity="0.03"/>
<path d="M1539 989.12H989V565.776C989 374.58 1145.7 219.585 1339 219.585H1539V989.12Z" fill="white" fill-opacity="0.07"/>
<path d="M1539 -40.5539C1539 -184.225 1656.75 -300.692 1802 -300.692C1947.25 -300.692 2065 -184.225 2065 -40.5539C2065 103.117 1947.25 219.585 1802 219.585H1539V-40.5539Z" fill="white" fill-opacity="0.07"/>
<g opacity="0.4">
<path opacity="0.4" d="M1651 157.087V158.563H1649.05V160.776H1647.75V158.563H1645.79V157.087H1647.75V154.873H1649.05V157.087H1651Z" fill="white"/>
<path opacity="0.4" d="M1651 174.798V176.274H1649.05V178.488H1647.75V176.274H1645.79V174.798H1647.75V172.584H1649.05V174.798H1651Z" fill="white"/>
<path opacity="0.4" d="M1651 192.508V193.984H1649.05V196.198H1647.75V193.984H1645.79V192.508H1647.75V190.295H1649.05V192.508H1651Z" fill="white"/>
<path opacity="0.4" d="M1651 210.22V211.695H1649.05V213.909H1647.75V211.695H1645.79V210.22H1647.75V208.005H1649.05V210.22H1651Z" fill="white"/>
<path opacity="0.4" d="M1651 227.93V229.407H1649.05V231.62H1647.75V229.407H1645.79V227.93H1647.75V225.716H1649.05V227.93H1651Z" fill="white"/>
<path opacity="0.4" d="M1651 245.641V247.117H1649.05V249.33H1647.75V247.117H1645.79V245.641H1647.75V243.426H1649.05V245.641H1651Z" fill="white"/>
<path opacity="0.4" d="M1651 263.351V264.828H1649.05V267.042H1647.75V264.828H1645.79V263.351H1647.75V261.138H1649.05V263.351H1651Z" fill="white"/>
<path opacity="0.4" d="M1651 281.062V282.538H1649.05V284.753H1647.75V282.538H1645.79V281.062H1647.75V278.849H1649.05V281.062H1651Z" fill="white"/>
<path opacity="0.4" d="M1651 298.773V300.249H1649.05V302.463H1647.75V300.249H1645.79V298.773H1647.75V296.559H1649.05V298.773H1651Z" fill="white"/>
<path opacity="0.4" d="M1651 316.484V317.959H1649.05V320.174H1647.75V317.959H1645.79V316.484H1647.75V314.27H1649.05V316.484H1651Z" fill="white"/>
<path opacity="0.4" d="M1651 334.195V335.671H1649.05V337.884H1647.75V335.671H1645.79V334.195H1647.75V331.98H1649.05V334.195H1651Z" fill="white"/>
<path opacity="0.4" d="M1651 351.905V353.381H1649.05V355.595H1647.75V353.381H1645.79V351.905H1647.75V349.691H1649.05V351.905H1651Z" fill="white"/>
<path opacity="0.4" d="M1651 369.616V371.092H1649.05V373.306H1647.75V371.092H1645.79V369.616H1647.75V367.403H1649.05V369.616H1651Z" fill="white"/>
<path opacity="0.4" d="M1651 387.327V388.803H1649.05V391.017H1647.75V388.803H1645.79V387.327H1647.75V385.114H1649.05V387.327H1651Z" fill="white"/>
<path opacity="0.4" d="M1651 405.038V406.513H1649.05V408.727H1647.75V406.513H1645.79V405.038H1647.75V402.824H1649.05V405.038H1651Z" fill="white"/>
<path opacity="0.4" d="M1651 422.749V424.225H1649.05V426.438H1647.75V424.225H1645.79V422.749H1647.75V420.535H1649.05V422.749H1651Z" fill="white"/>
<path opacity="0.4" d="M1651 440.459V441.935H1649.05V444.149H1647.75V441.935H1645.79V440.459H1647.75V438.245H1649.05V440.459H1651Z" fill="white"/>
<path opacity="0.4" d="M1651 458.17V459.646H1649.05V461.86H1647.75V459.646H1645.79V458.17H1647.75V455.957H1649.05V458.17H1651Z" fill="white"/>
<path opacity="0.4" d="M1651 475.881V477.357H1649.05V479.571H1647.75V477.357H1645.79V475.881H1647.75V473.667H1649.05V475.881H1651Z" fill="white"/>
<path opacity="0.4" d="M1651 493.592V495.067H1649.05V497.281H1647.75V495.067H1645.79V493.592H1647.75V491.378H1649.05V493.592H1651Z" fill="white"/>
<path opacity="0.4" d="M1635.38 157.087V158.563H1633.43V160.776H1632.13V158.563H1630.17V157.087H1632.13V154.873H1633.43V157.087H1635.38Z" fill="white"/>
<path opacity="0.4" d="M1635.38 174.798V176.274H1633.43V178.488H1632.13V176.274H1630.17V174.798H1632.13V172.584H1633.43V174.798H1635.38Z" fill="white"/>
<path opacity="0.4" d="M1635.38 192.508V193.984H1633.43V196.198H1632.13V193.984H1630.17V192.508H1632.13V190.295H1633.43V192.508H1635.38Z" fill="white"/>
<path opacity="0.4" d="M1635.38 210.22V211.695H1633.43V213.909H1632.13V211.695H1630.17V210.22H1632.13V208.005H1633.43V210.22H1635.38Z" fill="white"/>
<path opacity="0.4" d="M1635.38 227.93V229.407H1633.43V231.62H1632.13V229.407H1630.17V227.93H1632.13V225.716H1633.43V227.93H1635.38Z" fill="white"/>
<path opacity="0.4" d="M1635.38 245.641V247.117H1633.43V249.33H1632.13V247.117H1630.17V245.641H1632.13V243.426H1633.43V245.641H1635.38Z" fill="white"/>
<path opacity="0.4" d="M1635.38 263.351V264.828H1633.43V267.042H1632.13V264.828H1630.17V263.351H1632.13V261.138H1633.43V263.351H1635.38Z" fill="white"/>
<path opacity="0.4" d="M1635.38 281.062V282.538H1633.43V284.753H1632.13V282.538H1630.17V281.062H1632.13V278.849H1633.43V281.062H1635.38Z" fill="white"/>
<path opacity="0.4" d="M1635.38 298.773V300.249H1633.43V302.463H1632.13V300.249H1630.17V298.773H1632.13V296.559H1633.43V298.773H1635.38Z" fill="white"/>
<path opacity="0.4" d="M1635.38 316.484V317.959H1633.43V320.174H1632.13V317.959H1630.17V316.484H1632.13V314.27H1633.43V316.484H1635.38Z" fill="white"/>
<path opacity="0.4" d="M1635.38 334.195V335.671H1633.43V337.884H1632.13V335.671H1630.17V334.195H1632.13V331.98H1633.43V334.195H1635.38Z" fill="white"/>
<path opacity="0.4" d="M1635.38 351.905V353.381H1633.43V355.595H1632.13V353.381H1630.17V351.905H1632.13V349.691H1633.43V351.905H1635.38Z" fill="white"/>
<path opacity="0.4" d="M1635.38 369.616V371.092H1633.43V373.306H1632.13V371.092H1630.17V369.616H1632.13V367.403H1633.43V369.616H1635.38Z" fill="white"/>
<path opacity="0.4" d="M1635.38 387.327V388.803H1633.43V391.017H1632.13V388.803H1630.17V387.327H1632.13V385.114H1633.43V387.327H1635.38Z" fill="white"/>
<path opacity="0.4" d="M1635.38 405.038V406.513H1633.43V408.727H1632.13V406.513H1630.17V405.038H1632.13V402.824H1633.43V405.038H1635.38Z" fill="white"/>
<path opacity="0.4" d="M1635.38 422.749V424.225H1633.43V426.438H1632.13V424.225H1630.17V422.749H1632.13V420.535H1633.43V422.749H1635.38Z" fill="white"/>
<path opacity="0.4" d="M1635.38 440.459V441.935H1633.43V444.149H1632.13V441.935H1630.17V440.459H1632.13V438.245H1633.43V440.459H1635.38Z" fill="white"/>
<path opacity="0.4" d="M1635.38 458.17V459.646H1633.43V461.86H1632.13V459.646H1630.17V458.17H1632.13V455.957H1633.43V458.17H1635.38Z" fill="white"/>
<path opacity="0.4" d="M1635.38 475.881V477.357H1633.43V479.571H1632.13V477.357H1630.17V475.881H1632.13V473.667H1633.43V475.881H1635.38Z" fill="white"/>
<path opacity="0.4" d="M1635.38 493.592V495.067H1633.43V497.281H1632.13V495.067H1630.17V493.592H1632.13V491.378H1633.43V493.592H1635.38Z" fill="white"/>
<path opacity="0.4" d="M1619.76 157.087V158.563H1617.81V160.776H1616.5V158.563H1614.55V157.087H1616.5V154.873H1617.81V157.087H1619.76Z" fill="white"/>
<path opacity="0.4" d="M1619.76 174.798V176.274H1617.81V178.488H1616.5V176.274H1614.55V174.798H1616.5V172.584H1617.81V174.798H1619.76Z" fill="white"/>
<path opacity="0.4" d="M1619.76 192.508V193.984H1617.81V196.198H1616.5V193.984H1614.55V192.508H1616.5V190.295H1617.81V192.508H1619.76Z" fill="white"/>
<path opacity="0.4" d="M1619.76 210.22V211.695H1617.81V213.909H1616.5V211.695H1614.55V210.22H1616.5V208.005H1617.81V210.22H1619.76Z" fill="white"/>
<path opacity="0.4" d="M1619.76 227.93V229.407H1617.81V231.62H1616.5V229.407H1614.55V227.93H1616.5V225.716H1617.81V227.93H1619.76Z" fill="white"/>
<path opacity="0.4" d="M1619.76 245.641V247.117H1617.81V249.33H1616.5V247.117H1614.55V245.641H1616.5V243.426H1617.81V245.641H1619.76Z" fill="white"/>
<path opacity="0.4" d="M1619.76 263.351V264.828H1617.81V267.042H1616.5V264.828H1614.55V263.351H1616.5V261.138H1617.81V263.351H1619.76Z" fill="white"/>
<path opacity="0.4" d="M1619.76 281.062V282.538H1617.81V284.753H1616.5V282.538H1614.55V281.062H1616.5V278.849H1617.81V281.062H1619.76Z" fill="white"/>
<path opacity="0.4" d="M1619.76 298.773V300.249H1617.81V302.463H1616.5V300.249H1614.55V298.773H1616.5V296.559H1617.81V298.773H1619.76Z" fill="white"/>
<path opacity="0.4" d="M1619.76 316.484V317.959H1617.81V320.174H1616.5V317.959H1614.55V316.484H1616.5V314.27H1617.81V316.484H1619.76Z" fill="white"/>
<path opacity="0.4" d="M1619.76 334.195V335.671H1617.81V337.884H1616.5V335.671H1614.55V334.195H1616.5V331.98H1617.81V334.195H1619.76Z" fill="white"/>
<path opacity="0.4" d="M1619.76 351.905V353.381H1617.81V355.595H1616.5V353.381H1614.55V351.905H1616.5V349.691H1617.81V351.905H1619.76Z" fill="white"/>
<path opacity="0.4" d="M1619.76 369.616V371.092H1617.81V373.306H1616.5V371.092H1614.55V369.616H1616.5V367.403H1617.81V369.616H1619.76Z" fill="white"/>
<path opacity="0.4" d="M1619.76 387.327V388.803H1617.81V391.017H1616.5V388.803H1614.55V387.327H1616.5V385.114H1617.81V387.327H1619.76Z" fill="white"/>
<path opacity="0.4" d="M1619.76 405.038V406.513H1617.81V408.727H1616.5V406.513H1614.55V405.038H1616.5V402.824H1617.81V405.038H1619.76Z" fill="white"/>
<path opacity="0.4" d="M1619.76 422.749V424.225H1617.81V426.438H1616.5V424.225H1614.55V422.749H1616.5V420.535H1617.81V422.749H1619.76Z" fill="white"/>
<path opacity="0.4" d="M1619.76 440.459V441.935H1617.81V444.149H1616.5V441.935H1614.55V440.459H1616.5V438.245H1617.81V440.459H1619.76Z" fill="white"/>
<path opacity="0.4" d="M1619.76 458.17V459.646H1617.81V461.86H1616.5V459.646H1614.55V458.17H1616.5V455.957H1617.81V458.17H1619.76Z" fill="white"/>
<path opacity="0.4" d="M1619.76 475.881V477.357H1617.81V479.571H1616.5V477.357H1614.55V475.881H1616.5V473.667H1617.81V475.881H1619.76Z" fill="white"/>
<path opacity="0.4" d="M1619.76 493.592V495.067H1617.81V497.281H1616.5V495.067H1614.55V493.592H1616.5V491.378H1617.81V493.592H1619.76Z" fill="white"/>
<path opacity="0.4" d="M1604.14 157.087V158.563H1602.19V160.776H1600.88V158.563H1598.93V157.087H1600.88V154.873H1602.19V157.087H1604.14Z" fill="white"/>
<path opacity="0.4" d="M1604.14 174.798V176.274H1602.19V178.488H1600.88V176.274H1598.93V174.798H1600.88V172.584H1602.19V174.798H1604.14Z" fill="white"/>
<path opacity="0.4" d="M1604.14 192.508V193.984H1602.19V196.198H1600.88V193.984H1598.93V192.508H1600.88V190.295H1602.19V192.508H1604.14Z" fill="white"/>
<path opacity="0.4" d="M1604.14 210.22V211.695H1602.19V213.909H1600.88V211.695H1598.93V210.22H1600.88V208.005H1602.19V210.22H1604.14Z" fill="white"/>
<path opacity="0.4" d="M1604.14 227.93V229.407H1602.19V231.62H1600.88V229.407H1598.93V227.93H1600.88V225.716H1602.19V227.93H1604.14Z" fill="white"/>
<path opacity="0.4" d="M1604.14 245.641V247.117H1602.19V249.33H1600.88V247.117H1598.93V245.641H1600.88V243.426H1602.19V245.641H1604.14Z" fill="white"/>
<path opacity="0.4" d="M1604.14 263.351V264.828H1602.19V267.042H1600.88V264.828H1598.93V263.351H1600.88V261.138H1602.19V263.351H1604.14Z" fill="white"/>
<path opacity="0.4" d="M1604.14 281.062V282.538H1602.19V284.753H1600.88V282.538H1598.93V281.062H1600.88V278.849H1602.19V281.062H1604.14Z" fill="white"/>
<path opacity="0.4" d="M1604.14 298.773V300.249H1602.19V302.463H1600.88V300.249H1598.93V298.773H1600.88V296.559H1602.19V298.773H1604.14Z" fill="white"/>
<path opacity="0.4" d="M1604.14 316.484V317.959H1602.19V320.174H1600.88V317.959H1598.93V316.484H1600.88V314.27H1602.19V316.484H1604.14Z" fill="white"/>
<path opacity="0.4" d="M1604.14 334.195V335.671H1602.19V337.884H1600.88V335.671H1598.93V334.195H1600.88V331.98H1602.19V334.195H1604.14Z" fill="white"/>
<path opacity="0.4" d="M1604.14 351.905V353.381H1602.19V355.595H1600.88V353.381H1598.93V351.905H1600.88V349.691H1602.19V351.905H1604.14Z" fill="white"/>
<path opacity="0.4" d="M1604.14 369.616V371.092H1602.19V373.306H1600.88V371.092H1598.93V369.616H1600.88V367.403H1602.19V369.616H1604.14Z" fill="white"/>
<path opacity="0.4" d="M1604.14 387.327V388.803H1602.19V391.017H1600.88V388.803H1598.93V387.327H1600.88V385.114H1602.19V387.327H1604.14Z" fill="white"/>
<path opacity="0.4" d="M1604.14 405.038V406.513H1602.19V408.727H1600.88V406.513H1598.93V405.038H1600.88V402.824H1602.19V405.038H1604.14Z" fill="white"/>
<path opacity="0.4" d="M1604.14 422.749V424.225H1602.19V426.438H1600.88V424.225H1598.93V422.749H1600.88V420.535H1602.19V422.749H1604.14Z" fill="white"/>
<path opacity="0.4" d="M1604.14 440.459V441.935H1602.19V444.149H1600.88V441.935H1598.93V440.459H1600.88V438.245H1602.19V440.459H1604.14Z" fill="white"/>
<path opacity="0.4" d="M1604.14 458.17V459.646H1602.19V461.86H1600.88V459.646H1598.93V458.17H1600.88V455.957H1602.19V458.17H1604.14Z" fill="white"/>
<path opacity="0.4" d="M1604.14 475.881V477.357H1602.19V479.571H1600.88V477.357H1598.93V475.881H1600.88V473.667H1602.19V475.881H1604.14Z" fill="white"/>
<path opacity="0.4" d="M1604.14 493.592V495.067H1602.19V497.281H1600.88V495.067H1598.93V493.592H1600.88V491.378H1602.19V493.592H1604.14Z" fill="white"/>
<path opacity="0.4" d="M1588.52 157.087V158.563H1586.57V160.776H1585.26V158.563H1583.31V157.087H1585.26V154.873H1586.57V157.087H1588.52Z" fill="white"/>
<path opacity="0.4" d="M1588.52 174.798V176.274H1586.56V178.488H1585.26V176.274H1583.31V174.798H1585.26V172.584H1586.56V174.798H1588.52Z" fill="white"/>
<path opacity="0.4" d="M1588.52 192.508V193.984H1586.56V196.198H1585.26V193.984H1583.31V192.508H1585.26V190.295H1586.56V192.508H1588.52Z" fill="white"/>
<path opacity="0.4" d="M1588.52 210.22V211.695H1586.56V213.909H1585.26V211.695H1583.31V210.22H1585.26V208.005H1586.56V210.22H1588.52Z" fill="white"/>
<path opacity="0.4" d="M1588.52 227.93V229.407H1586.56V231.62H1585.26V229.407H1583.31V227.93H1585.26V225.716H1586.56V227.93H1588.52Z" fill="white"/>
<path opacity="0.4" d="M1588.52 245.641V247.117H1586.56V249.33H1585.26V247.117H1583.31V245.641H1585.26V243.426H1586.56V245.641H1588.52Z" fill="white"/>
<path opacity="0.4" d="M1588.52 263.351V264.828H1586.56V267.042H1585.26V264.828H1583.31V263.351H1585.26V261.138H1586.56V263.351H1588.52Z" fill="white"/>
<path opacity="0.4" d="M1588.52 281.062V282.538H1586.56V284.753H1585.26V282.538H1583.31V281.062H1585.26V278.849H1586.56V281.062H1588.52Z" fill="white"/>
<path opacity="0.4" d="M1588.52 298.773V300.249H1586.56V302.463H1585.26V300.249H1583.31V298.773H1585.26V296.559H1586.56V298.773H1588.52Z" fill="white"/>
<path opacity="0.4" d="M1588.52 316.484V317.959H1586.56V320.174H1585.26V317.959H1583.31V316.484H1585.26V314.27H1586.56V316.484H1588.52Z" fill="white"/>
<path opacity="0.4" d="M1588.52 334.195V335.671H1586.56V337.884H1585.26V335.671H1583.31V334.195H1585.26V331.98H1586.56V334.195H1588.52Z" fill="white"/>
<path opacity="0.4" d="M1588.52 351.905V353.381H1586.56V355.595H1585.26V353.381H1583.31V351.905H1585.26V349.691H1586.56V351.905H1588.52Z" fill="white"/>
<path opacity="0.4" d="M1588.52 369.616V371.092H1586.56V373.306H1585.26V371.092H1583.31V369.616H1585.26V367.403H1586.56V369.616H1588.52Z" fill="white"/>
<path opacity="0.4" d="M1588.52 387.327V388.803H1586.56V391.017H1585.26V388.803H1583.31V387.327H1585.26V385.114H1586.56V387.327H1588.52Z" fill="white"/>
<path opacity="0.4" d="M1588.52 405.038V406.513H1586.56V408.727H1585.26V406.513H1583.31V405.038H1585.26V402.824H1586.56V405.038H1588.52Z" fill="white"/>
<path opacity="0.4" d="M1588.52 422.749V424.225H1586.56V426.438H1585.26V424.225H1583.31V422.749H1585.26V420.535H1586.56V422.749H1588.52Z" fill="white"/>
<path opacity="0.4" d="M1588.52 440.459V441.935H1586.56V444.149H1585.26V441.935H1583.31V440.459H1585.26V438.245H1586.56V440.459H1588.52Z" fill="white"/>
<path opacity="0.4" d="M1588.52 458.17V459.646H1586.56V461.86H1585.26V459.646H1583.31V458.17H1585.26V455.957H1586.56V458.17H1588.52Z" fill="white"/>
<path opacity="0.4" d="M1588.52 475.881V477.357H1586.56V479.571H1585.26V477.357H1583.31V475.881H1585.26V473.667H1586.56V475.881H1588.52Z" fill="white"/>
<path opacity="0.4" d="M1588.52 493.592V495.067H1586.56V497.281H1585.26V495.067H1583.31V493.592H1585.26V491.378H1586.56V493.592H1588.52Z" fill="white"/>
<path opacity="0.4" d="M1572.9 157.087V158.563H1570.94V160.776H1569.64V158.563H1567.69V157.087H1569.64V154.873H1570.94V157.087H1572.9Z" fill="white"/>
<path opacity="0.4" d="M1572.9 174.798V176.274H1570.94V178.488H1569.64V176.274H1567.69V174.798H1569.64V172.584H1570.94V174.798H1572.9Z" fill="white"/>
<path opacity="0.4" d="M1572.9 192.508V193.984H1570.94V196.198H1569.64V193.984H1567.69V192.508H1569.64V190.295H1570.94V192.508H1572.9Z" fill="white"/>
<path opacity="0.4" d="M1572.9 210.22V211.695H1570.94V213.909H1569.64V211.695H1567.69V210.22H1569.64V208.005H1570.94V210.22H1572.9Z" fill="white"/>
<path opacity="0.4" d="M1572.9 227.93V229.407H1570.94V231.62H1569.64V229.407H1567.69V227.93H1569.64V225.716H1570.94V227.93H1572.9Z" fill="white"/>
<path opacity="0.4" d="M1572.9 245.641V247.117H1570.94V249.33H1569.64V247.117H1567.69V245.641H1569.64V243.426H1570.94V245.641H1572.9Z" fill="white"/>
<path opacity="0.4" d="M1572.9 263.351V264.828H1570.94V267.042H1569.64V264.828H1567.69V263.351H1569.64V261.138H1570.94V263.351H1572.9Z" fill="white"/>
<path opacity="0.4" d="M1572.9 281.062V282.538H1570.94V284.753H1569.64V282.538H1567.69V281.062H1569.64V278.849H1570.94V281.062H1572.9Z" fill="white"/>
<path opacity="0.4" d="M1572.9 298.773V300.249H1570.94V302.463H1569.64V300.249H1567.69V298.773H1569.64V296.559H1570.94V298.773H1572.9Z" fill="white"/>
<path opacity="0.4" d="M1572.9 316.484V317.959H1570.94V320.174H1569.64V317.959H1567.69V316.484H1569.64V314.27H1570.94V316.484H1572.9Z" fill="white"/>
<path opacity="0.4" d="M1572.9 334.195V335.671H1570.94V337.884H1569.64V335.671H1567.69V334.195H1569.64V331.98H1570.94V334.195H1572.9Z" fill="white"/>
<path opacity="0.4" d="M1572.9 351.905V353.381H1570.94V355.595H1569.64V353.381H1567.69V351.905H1569.64V349.691H1570.94V351.905H1572.9Z" fill="white"/>
<path opacity="0.4" d="M1572.9 369.616V371.092H1570.94V373.306H1569.64V371.092H1567.69V369.616H1569.64V367.403H1570.94V369.616H1572.9Z" fill="white"/>
<path opacity="0.4" d="M1572.9 387.327V388.803H1570.94V391.017H1569.64V388.803H1567.69V387.327H1569.64V385.114H1570.94V387.327H1572.9Z" fill="white"/>
<path opacity="0.4" d="M1572.9 405.038V406.513H1570.94V408.727H1569.64V406.513H1567.69V405.038H1569.64V402.824H1570.94V405.038H1572.9Z" fill="white"/>
<path opacity="0.4" d="M1572.9 422.749V424.225H1570.94V426.438H1569.64V424.225H1567.69V422.749H1569.64V420.535H1570.94V422.749H1572.9Z" fill="white"/>
<path opacity="0.4" d="M1572.9 440.459V441.935H1570.94V444.149H1569.64V441.935H1567.69V440.459H1569.64V438.245H1570.94V440.459H1572.9Z" fill="white"/>
<path opacity="0.4" d="M1572.9 458.17V459.646H1570.94V461.86H1569.64V459.646H1567.69V458.17H1569.64V455.957H1570.94V458.17H1572.9Z" fill="white"/>
<path opacity="0.4" d="M1572.9 475.881V477.357H1570.94V479.571H1569.64V477.357H1567.69V475.881H1569.64V473.667H1570.94V475.881H1572.9Z" fill="white"/>
<path opacity="0.4" d="M1572.9 493.592V495.067H1570.94V497.281H1569.64V495.067H1567.69V493.592H1569.64V491.378H1570.94V493.592H1572.9Z" fill="white"/>
<path opacity="0.4" d="M1557.28 157.087V158.563H1555.32V160.776H1554.02V158.563H1552.07V157.087H1554.02V154.873H1555.32V157.087H1557.28Z" fill="white"/>
<path opacity="0.4" d="M1557.28 174.798V176.274H1555.32V178.488H1554.02V176.274H1552.07V174.798H1554.02V172.584H1555.32V174.798H1557.28Z" fill="white"/>
<path opacity="0.4" d="M1557.28 192.508V193.984H1555.32V196.198H1554.02V193.984H1552.07V192.508H1554.02V190.295H1555.32V192.508H1557.28Z" fill="white"/>
<path opacity="0.4" d="M1557.28 210.22V211.695H1555.32V213.909H1554.02V211.695H1552.07V210.22H1554.02V208.005H1555.32V210.22H1557.28Z" fill="white"/>
<path opacity="0.4" d="M1557.28 227.93V229.407H1555.32V231.62H1554.02V229.407H1552.07V227.93H1554.02V225.716H1555.32V227.93H1557.28Z" fill="white"/>
<path opacity="0.4" d="M1557.28 245.641V247.117H1555.32V249.33H1554.02V247.117H1552.07V245.641H1554.02V243.426H1555.32V245.641H1557.28Z" fill="white"/>
<path opacity="0.4" d="M1557.28 263.351V264.828H1555.32V267.042H1554.02V264.828H1552.07V263.351H1554.02V261.138H1555.32V263.351H1557.28Z" fill="white"/>
<path opacity="0.4" d="M1557.28 281.062V282.538H1555.32V284.753H1554.02V282.538H1552.07V281.062H1554.02V278.849H1555.32V281.062H1557.28Z" fill="white"/>
<path opacity="0.4" d="M1557.28 298.773V300.249H1555.32V302.463H1554.02V300.249H1552.07V298.773H1554.02V296.559H1555.32V298.773H1557.28Z" fill="white"/>
<path opacity="0.4" d="M1557.28 316.484V317.959H1555.32V320.174H1554.02V317.959H1552.07V316.484H1554.02V314.27H1555.32V316.484H1557.28Z" fill="white"/>
<path opacity="0.4" d="M1557.28 334.195V335.671H1555.32V337.884H1554.02V335.671H1552.07V334.195H1554.02V331.98H1555.32V334.195H1557.28Z" fill="white"/>
<path opacity="0.4" d="M1557.28 351.905V353.381H1555.32V355.595H1554.02V353.381H1552.07V351.905H1554.02V349.691H1555.32V351.905H1557.28Z" fill="white"/>
<path opacity="0.4" d="M1557.28 369.616V371.092H1555.32V373.306H1554.02V371.092H1552.07V369.616H1554.02V367.403H1555.32V369.616H1557.28Z" fill="white"/>
<path opacity="0.4" d="M1557.28 387.327V388.803H1555.32V391.017H1554.02V388.803H1552.07V387.327H1554.02V385.114H1555.32V387.327H1557.28Z" fill="white"/>
<path opacity="0.4" d="M1557.28 405.038V406.513H1555.32V408.727H1554.02V406.513H1552.07V405.038H1554.02V402.824H1555.32V405.038H1557.28Z" fill="white"/>
<path opacity="0.4" d="M1557.28 422.749V424.225H1555.32V426.438H1554.02V424.225H1552.07V422.749H1554.02V420.535H1555.32V422.749H1557.28Z" fill="white"/>
<path opacity="0.4" d="M1557.28 440.459V441.935H1555.32V444.149H1554.02V441.935H1552.07V440.459H1554.02V438.245H1555.32V440.459H1557.28Z" fill="white"/>
<path opacity="0.4" d="M1557.28 458.17V459.646H1555.32V461.86H1554.02V459.646H1552.07V458.17H1554.02V455.957H1555.32V458.17H1557.28Z" fill="white"/>
<path opacity="0.4" d="M1557.28 475.881V477.357H1555.32V479.571H1554.02V477.357H1552.07V475.881H1554.02V473.667H1555.32V475.881H1557.28Z" fill="white"/>
<path opacity="0.4" d="M1557.28 493.592V495.067H1555.32V497.281H1554.02V495.067H1552.07V493.592H1554.02V491.378H1555.32V493.592H1557.28Z" fill="white"/>
<path opacity="0.4" d="M1541.66 157.087V158.563H1539.7V160.776H1538.4V158.563H1536.45V157.087H1538.4V154.873H1539.7V157.087H1541.66Z" fill="white"/>
<path opacity="0.4" d="M1541.66 174.798V176.274H1539.7V178.488H1538.4V176.274H1536.45V174.798H1538.4V172.584H1539.7V174.798H1541.66Z" fill="white"/>
<path opacity="0.4" d="M1541.66 192.508V193.984H1539.7V196.198H1538.4V193.984H1536.45V192.508H1538.4V190.295H1539.7V192.508H1541.66Z" fill="white"/>
<path opacity="0.4" d="M1541.66 210.22V211.695H1539.7V213.909H1538.4V211.695H1536.45V210.22H1538.4V208.005H1539.7V210.22H1541.66Z" fill="white"/>
<path opacity="0.4" d="M1541.66 227.93V229.407H1539.7V231.62H1538.4V229.407H1536.45V227.93H1538.4V225.716H1539.7V227.93H1541.66Z" fill="white"/>
<path opacity="0.4" d="M1541.66 245.641V247.117H1539.7V249.33H1538.4V247.117H1536.45V245.641H1538.4V243.426H1539.7V245.641H1541.66Z" fill="white"/>
<path opacity="0.4" d="M1541.66 263.351V264.828H1539.7V267.042H1538.4V264.828H1536.45V263.351H1538.4V261.138H1539.7V263.351H1541.66Z" fill="white"/>
<path opacity="0.4" d="M1541.66 281.062V282.538H1539.7V284.753H1538.4V282.538H1536.45V281.062H1538.4V278.849H1539.7V281.062H1541.66Z" fill="white"/>
<path opacity="0.4" d="M1541.66 298.773V300.249H1539.7V302.463H1538.4V300.249H1536.45V298.773H1538.4V296.559H1539.7V298.773H1541.66Z" fill="white"/>
<path opacity="0.4" d="M1541.66 316.484V317.959H1539.7V320.174H1538.4V317.959H1536.45V316.484H1538.4V314.27H1539.7V316.484H1541.66Z" fill="white"/>
<path opacity="0.4" d="M1541.66 334.195V335.671H1539.7V337.884H1538.4V335.671H1536.45V334.195H1538.4V331.98H1539.7V334.195H1541.66Z" fill="white"/>
<path opacity="0.4" d="M1541.66 351.905V353.381H1539.7V355.595H1538.4V353.381H1536.45V351.905H1538.4V349.691H1539.7V351.905H1541.66Z" fill="white"/>
<path opacity="0.4" d="M1541.66 369.616V371.092H1539.7V373.306H1538.4V371.092H1536.45V369.616H1538.4V367.403H1539.7V369.616H1541.66Z" fill="white"/>
<path opacity="0.4" d="M1541.66 387.327V388.803H1539.7V391.017H1538.4V388.803H1536.45V387.327H1538.4V385.114H1539.7V387.327H1541.66Z" fill="white"/>
<path opacity="0.4" d="M1541.66 405.038V406.513H1539.7V408.727H1538.4V406.513H1536.45V405.038H1538.4V402.824H1539.7V405.038H1541.66Z" fill="white"/>
<path opacity="0.4" d="M1541.66 422.749V424.225H1539.7V426.438H1538.4V424.225H1536.45V422.749H1538.4V420.535H1539.7V422.749H1541.66Z" fill="white"/>
<path opacity="0.4" d="M1541.66 440.459V441.935H1539.7V444.149H1538.4V441.935H1536.45V440.459H1538.4V438.245H1539.7V440.459H1541.66Z" fill="white"/>
<path opacity="0.4" d="M1541.66 458.17V459.646H1539.7V461.86H1538.4V459.646H1536.45V458.17H1538.4V455.957H1539.7V458.17H1541.66Z" fill="white"/>
<path opacity="0.4" d="M1541.66 475.881V477.357H1539.7V479.571H1538.4V477.357H1536.45V475.881H1538.4V473.667H1539.7V475.881H1541.66Z" fill="white"/>
<path opacity="0.4" d="M1541.66 493.592V495.067H1539.7V497.281H1538.4V495.067H1536.45V493.592H1538.4V491.378H1539.7V493.592H1541.66Z" fill="white"/>
<path opacity="0.4" d="M1526.03 157.087V158.563H1524.08V160.776H1522.78V158.563H1520.83V157.087H1522.78V154.873H1524.08V157.087H1526.03Z" fill="white"/>
<path opacity="0.4" d="M1526.03 174.798V176.274H1524.08V178.488H1522.78V176.274H1520.83V174.798H1522.78V172.584H1524.08V174.798H1526.03Z" fill="white"/>
<path opacity="0.4" d="M1526.03 192.508V193.984H1524.08V196.198H1522.78V193.984H1520.83V192.508H1522.78V190.295H1524.08V192.508H1526.03Z" fill="white"/>
<path opacity="0.4" d="M1526.03 210.22V211.695H1524.08V213.909H1522.78V211.695H1520.83V210.22H1522.78V208.005H1524.08V210.22H1526.03Z" fill="white"/>
<path opacity="0.4" d="M1526.03 227.93V229.407H1524.08V231.62H1522.78V229.407H1520.83V227.93H1522.78V225.716H1524.08V227.93H1526.03Z" fill="white"/>
<path opacity="0.4" d="M1526.03 245.641V247.117H1524.08V249.33H1522.78V247.117H1520.83V245.641H1522.78V243.426H1524.08V245.641H1526.03Z" fill="white"/>
<path opacity="0.4" d="M1526.03 263.351V264.828H1524.08V267.042H1522.78V264.828H1520.83V263.351H1522.78V261.138H1524.08V263.351H1526.03Z" fill="white"/>
<path opacity="0.4" d="M1526.03 281.062V282.538H1524.08V284.753H1522.78V282.538H1520.83V281.062H1522.78V278.849H1524.08V281.062H1526.03Z" fill="white"/>
<path opacity="0.4" d="M1526.03 298.773V300.249H1524.08V302.463H1522.78V300.249H1520.83V298.773H1522.78V296.559H1524.08V298.773H1526.03Z" fill="white"/>
<path opacity="0.4" d="M1526.03 316.484V317.959H1524.08V320.174H1522.78V317.959H1520.83V316.484H1522.78V314.27H1524.08V316.484H1526.03Z" fill="white"/>
<path opacity="0.4" d="M1526.03 334.195V335.671H1524.08V337.884H1522.78V335.671H1520.83V334.195H1522.78V331.98H1524.08V334.195H1526.03Z" fill="white"/>
<path opacity="0.4" d="M1526.03 351.905V353.381H1524.08V355.595H1522.78V353.381H1520.83V351.905H1522.78V349.691H1524.08V351.905H1526.03Z" fill="white"/>
<path opacity="0.4" d="M1526.03 369.616V371.092H1524.08V373.306H1522.78V371.092H1520.83V369.616H1522.78V367.403H1524.08V369.616H1526.03Z" fill="white"/>
<path opacity="0.4" d="M1526.03 387.327V388.803H1524.08V391.017H1522.78V388.803H1520.83V387.327H1522.78V385.114H1524.08V387.327H1526.03Z" fill="white"/>
<path opacity="0.4" d="M1526.03 405.038V406.513H1524.08V408.727H1522.78V406.513H1520.83V405.038H1522.78V402.824H1524.08V405.038H1526.03Z" fill="white"/>
<path opacity="0.4" d="M1526.03 422.749V424.225H1524.08V426.438H1522.78V424.225H1520.83V422.749H1522.78V420.535H1524.08V422.749H1526.03Z" fill="white"/>
<path opacity="0.4" d="M1526.03 440.459V441.935H1524.08V444.149H1522.78V441.935H1520.83V440.459H1522.78V438.245H1524.08V440.459H1526.03Z" fill="white"/>
<path opacity="0.4" d="M1526.03 458.17V459.646H1524.08V461.86H1522.78V459.646H1520.83V458.17H1522.78V455.957H1524.08V458.17H1526.03Z" fill="white"/>
<path opacity="0.4" d="M1526.03 475.881V477.357H1524.08V479.571H1522.78V477.357H1520.83V475.881H1522.78V473.667H1524.08V475.881H1526.03Z" fill="white"/>
<path opacity="0.4" d="M1526.03 493.592V495.067H1524.08V497.281H1522.78V495.067H1520.83V493.592H1522.78V491.378H1524.08V493.592H1526.03Z" fill="white"/>
<path opacity="0.4" d="M1510.41 157.087V158.563H1508.46V160.776H1507.16V158.563H1505.21V157.087H1507.16V154.873H1508.46V157.087H1510.41Z" fill="white"/>
<path opacity="0.4" d="M1510.41 174.798V176.274H1508.46V178.488H1507.16V176.274H1505.21V174.798H1507.16V172.584H1508.46V174.798H1510.41Z" fill="white"/>
<path opacity="0.4" d="M1510.41 192.508V193.984H1508.46V196.198H1507.16V193.984H1505.21V192.508H1507.16V190.295H1508.46V192.508H1510.41Z" fill="white"/>
<path opacity="0.4" d="M1510.41 210.22V211.695H1508.46V213.909H1507.16V211.695H1505.21V210.22H1507.16V208.005H1508.46V210.22H1510.41Z" fill="white"/>
<path opacity="0.4" d="M1510.41 227.93V229.407H1508.46V231.62H1507.16V229.407H1505.21V227.93H1507.16V225.716H1508.46V227.93H1510.41Z" fill="white"/>
<path opacity="0.4" d="M1510.41 245.641V247.117H1508.46V249.33H1507.16V247.117H1505.21V245.641H1507.16V243.426H1508.46V245.641H1510.41Z" fill="white"/>
<path opacity="0.4" d="M1510.41 263.351V264.828H1508.46V267.042H1507.16V264.828H1505.21V263.351H1507.16V261.138H1508.46V263.351H1510.41Z" fill="white"/>
<path opacity="0.4" d="M1510.41 281.062V282.538H1508.46V284.753H1507.16V282.538H1505.21V281.062H1507.16V278.849H1508.46V281.062H1510.41Z" fill="white"/>
<path opacity="0.4" d="M1510.41 298.773V300.249H1508.46V302.463H1507.16V300.249H1505.21V298.773H1507.16V296.559H1508.46V298.773H1510.41Z" fill="white"/>
<path opacity="0.4" d="M1510.41 316.484V317.959H1508.46V320.174H1507.16V317.959H1505.21V316.484H1507.16V314.27H1508.46V316.484H1510.41Z" fill="white"/>
<path opacity="0.4" d="M1510.41 334.195V335.671H1508.46V337.884H1507.16V335.671H1505.21V334.195H1507.16V331.98H1508.46V334.195H1510.41Z" fill="white"/>
<path opacity="0.4" d="M1510.41 351.905V353.381H1508.46V355.595H1507.16V353.381H1505.21V351.905H1507.16V349.691H1508.46V351.905H1510.41Z" fill="white"/>
<path opacity="0.4" d="M1510.41 369.616V371.092H1508.46V373.306H1507.16V371.092H1505.21V369.616H1507.16V367.403H1508.46V369.616H1510.41Z" fill="white"/>
<path opacity="0.4" d="M1510.41 387.327V388.803H1508.46V391.017H1507.16V388.803H1505.21V387.327H1507.16V385.114H1508.46V387.327H1510.41Z" fill="white"/>
<path opacity="0.4" d="M1510.41 405.038V406.513H1508.46V408.727H1507.16V406.513H1505.21V405.038H1507.16V402.824H1508.46V405.038H1510.41Z" fill="white"/>
<path opacity="0.4" d="M1510.41 422.749V424.225H1508.46V426.438H1507.16V424.225H1505.21V422.749H1507.16V420.535H1508.46V422.749H1510.41Z" fill="white"/>
<path opacity="0.4" d="M1510.41 440.459V441.935H1508.46V444.149H1507.16V441.935H1505.21V440.459H1507.16V438.245H1508.46V440.459H1510.41Z" fill="white"/>
<path opacity="0.4" d="M1510.41 458.17V459.646H1508.46V461.86H1507.16V459.646H1505.21V458.17H1507.16V455.957H1508.46V458.17H1510.41Z" fill="white"/>
<path opacity="0.4" d="M1510.41 475.881V477.357H1508.46V479.571H1507.16V477.357H1505.21V475.881H1507.16V473.667H1508.46V475.881H1510.41Z" fill="white"/>
<path opacity="0.4" d="M1510.41 493.592V495.067H1508.46V497.281H1507.16V495.067H1505.21V493.592H1507.16V491.378H1508.46V493.592H1510.41Z" fill="white"/>
<path opacity="0.4" d="M1494.79 157.087V158.563H1492.84V160.776H1491.54V158.563H1489.59V157.087H1491.54V154.873H1492.84V157.087H1494.79Z" fill="white"/>
<path opacity="0.4" d="M1494.79 174.798V176.274H1492.84V178.488H1491.54V176.274H1489.59V174.798H1491.54V172.584H1492.84V174.798H1494.79Z" fill="white"/>
<path opacity="0.4" d="M1494.79 192.508V193.984H1492.84V196.198H1491.54V193.984H1489.59V192.508H1491.54V190.295H1492.84V192.508H1494.79Z" fill="white"/>
<path opacity="0.4" d="M1494.79 210.22V211.695H1492.84V213.909H1491.54V211.695H1489.59V210.22H1491.54V208.005H1492.84V210.22H1494.79Z" fill="white"/>
<path opacity="0.4" d="M1494.79 227.93V229.407H1492.84V231.62H1491.54V229.407H1489.59V227.93H1491.54V225.716H1492.84V227.93H1494.79Z" fill="white"/>
<path opacity="0.4" d="M1494.79 245.641V247.117H1492.84V249.33H1491.54V247.117H1489.59V245.641H1491.54V243.426H1492.84V245.641H1494.79Z" fill="white"/>
<path opacity="0.4" d="M1494.79 263.351V264.828H1492.84V267.042H1491.54V264.828H1489.59V263.351H1491.54V261.138H1492.84V263.351H1494.79Z" fill="white"/>
<path opacity="0.4" d="M1494.79 281.062V282.538H1492.84V284.753H1491.54V282.538H1489.59V281.062H1491.54V278.849H1492.84V281.062H1494.79Z" fill="white"/>
<path opacity="0.4" d="M1494.79 298.773V300.249H1492.84V302.463H1491.54V300.249H1489.59V298.773H1491.54V296.559H1492.84V298.773H1494.79Z" fill="white"/>
<path opacity="0.4" d="M1494.79 316.484V317.959H1492.84V320.174H1491.54V317.959H1489.59V316.484H1491.54V314.27H1492.84V316.484H1494.79Z" fill="white"/>
<path opacity="0.4" d="M1494.79 334.195V335.671H1492.84V337.884H1491.54V335.671H1489.59V334.195H1491.54V331.98H1492.84V334.195H1494.79Z" fill="white"/>
<path opacity="0.4" d="M1494.79 351.905V353.381H1492.84V355.595H1491.54V353.381H1489.59V351.905H1491.54V349.691H1492.84V351.905H1494.79Z" fill="white"/>
<path opacity="0.4" d="M1494.79 369.616V371.092H1492.84V373.306H1491.54V371.092H1489.59V369.616H1491.54V367.403H1492.84V369.616H1494.79Z" fill="white"/>
<path opacity="0.4" d="M1494.79 387.327V388.803H1492.84V391.017H1491.54V388.803H1489.59V387.327H1491.54V385.114H1492.84V387.327H1494.79Z" fill="white"/>
<path opacity="0.4" d="M1494.79 405.038V406.513H1492.84V408.727H1491.54V406.513H1489.59V405.038H1491.54V402.824H1492.84V405.038H1494.79Z" fill="white"/>
<path opacity="0.4" d="M1494.79 422.749V424.225H1492.84V426.438H1491.54V424.225H1489.59V422.749H1491.54V420.535H1492.84V422.749H1494.79Z" fill="white"/>
<path opacity="0.4" d="M1494.79 440.459V441.935H1492.84V444.149H1491.54V441.935H1489.59V440.459H1491.54V438.245H1492.84V440.459H1494.79Z" fill="white"/>
<path opacity="0.4" d="M1494.79 458.17V459.646H1492.84V461.86H1491.54V459.646H1489.59V458.17H1491.54V455.957H1492.84V458.17H1494.79Z" fill="white"/>
<path opacity="0.4" d="M1494.79 475.881V477.357H1492.84V479.571H1491.54V477.357H1489.59V475.881H1491.54V473.667H1492.84V475.881H1494.79Z" fill="white"/>
<path opacity="0.4" d="M1494.79 493.592V495.067H1492.84V497.281H1491.54V495.067H1489.59V493.592H1491.54V491.378H1492.84V493.592H1494.79Z" fill="white"/>
<path opacity="0.4" d="M1479.17 157.087V158.563H1477.22V160.776H1475.92V158.563H1473.97V157.087H1475.92V154.873H1477.22V157.087H1479.17Z" fill="white"/>
<path opacity="0.4" d="M1479.17 174.798V176.274H1477.22V178.488H1475.92V176.274H1473.97V174.798H1475.92V172.584H1477.22V174.798H1479.17Z" fill="white"/>
<path opacity="0.4" d="M1479.17 192.508V193.984H1477.22V196.198H1475.92V193.984H1473.97V192.508H1475.92V190.295H1477.22V192.508H1479.17Z" fill="white"/>
<path opacity="0.4" d="M1479.17 210.22V211.695H1477.22V213.909H1475.92V211.695H1473.97V210.22H1475.92V208.005H1477.22V210.22H1479.17Z" fill="white"/>
<path opacity="0.4" d="M1479.17 227.93V229.407H1477.22V231.62H1475.92V229.407H1473.97V227.93H1475.92V225.716H1477.22V227.93H1479.17Z" fill="white"/>
<path opacity="0.4" d="M1479.17 245.641V247.117H1477.22V249.33H1475.92V247.117H1473.97V245.641H1475.92V243.426H1477.22V245.641H1479.17Z" fill="white"/>
<path opacity="0.4" d="M1479.17 263.351V264.828H1477.22V267.042H1475.92V264.828H1473.97V263.351H1475.92V261.138H1477.22V263.351H1479.17Z" fill="white"/>
<path opacity="0.4" d="M1479.17 281.062V282.538H1477.22V284.753H1475.92V282.538H1473.97V281.062H1475.92V278.849H1477.22V281.062H1479.17Z" fill="white"/>
<path opacity="0.4" d="M1479.17 298.773V300.249H1477.22V302.463H1475.92V300.249H1473.97V298.773H1475.92V296.559H1477.22V298.773H1479.17Z" fill="white"/>
<path opacity="0.4" d="M1479.17 316.484V317.959H1477.22V320.174H1475.92V317.959H1473.97V316.484H1475.92V314.27H1477.22V316.484H1479.17Z" fill="white"/>
<path opacity="0.4" d="M1479.17 334.195V335.671H1477.22V337.884H1475.92V335.671H1473.97V334.195H1475.92V331.98H1477.22V334.195H1479.17Z" fill="white"/>
<path opacity="0.4" d="M1479.17 351.905V353.381H1477.22V355.595H1475.92V353.381H1473.97V351.905H1475.92V349.691H1477.22V351.905H1479.17Z" fill="white"/>
<path opacity="0.4" d="M1479.17 369.616V371.092H1477.22V373.306H1475.92V371.092H1473.97V369.616H1475.92V367.403H1477.22V369.616H1479.17Z" fill="white"/>
<path opacity="0.4" d="M1479.17 387.327V388.803H1477.22V391.017H1475.92V388.803H1473.97V387.327H1475.92V385.114H1477.22V387.327H1479.17Z" fill="white"/>
<path opacity="0.4" d="M1479.17 405.038V406.513H1477.22V408.727H1475.92V406.513H1473.97V405.038H1475.92V402.824H1477.22V405.038H1479.17Z" fill="white"/>
<path opacity="0.4" d="M1479.17 422.749V424.225H1477.22V426.438H1475.92V424.225H1473.97V422.749H1475.92V420.535H1477.22V422.749H1479.17Z" fill="white"/>
<path opacity="0.4" d="M1479.17 440.459V441.935H1477.22V444.149H1475.92V441.935H1473.97V440.459H1475.92V438.245H1477.22V440.459H1479.17Z" fill="white"/>
<path opacity="0.4" d="M1479.17 458.17V459.646H1477.22V461.86H1475.92V459.646H1473.97V458.17H1475.92V455.957H1477.22V458.17H1479.17Z" fill="white"/>
<path opacity="0.4" d="M1479.17 475.881V477.357H1477.22V479.571H1475.92V477.357H1473.97V475.881H1475.92V473.667H1477.22V475.881H1479.17Z" fill="white"/>
<path opacity="0.4" d="M1479.17 493.592V495.067H1477.22V497.281H1475.92V495.067H1473.97V493.592H1475.92V491.378H1477.22V493.592H1479.17Z" fill="white"/>
<path opacity="0.4" d="M1463.55 157.087V158.563H1461.6V160.776H1460.3V158.563H1458.34V157.087H1460.3V154.873H1461.6V157.087H1463.55Z" fill="white"/>
<path opacity="0.4" d="M1463.55 174.798V176.274H1461.6V178.488H1460.3V176.274H1458.34V174.798H1460.3V172.584H1461.6V174.798H1463.55Z" fill="white"/>
<path opacity="0.4" d="M1463.55 192.508V193.984H1461.6V196.198H1460.3V193.984H1458.34V192.508H1460.3V190.295H1461.6V192.508H1463.55Z" fill="white"/>
<path opacity="0.4" d="M1463.55 210.22V211.695H1461.6V213.909H1460.3V211.695H1458.34V210.22H1460.3V208.005H1461.6V210.22H1463.55Z" fill="white"/>
<path opacity="0.4" d="M1463.55 227.93V229.407H1461.6V231.62H1460.3V229.407H1458.34V227.93H1460.3V225.716H1461.6V227.93H1463.55Z" fill="white"/>
<path opacity="0.4" d="M1463.55 245.641V247.117H1461.6V249.33H1460.3V247.117H1458.34V245.641H1460.3V243.426H1461.6V245.641H1463.55Z" fill="white"/>
<path opacity="0.4" d="M1463.55 263.351V264.828H1461.6V267.042H1460.3V264.828H1458.34V263.351H1460.3V261.138H1461.6V263.351H1463.55Z" fill="white"/>
<path opacity="0.4" d="M1463.55 281.062V282.538H1461.6V284.753H1460.3V282.538H1458.34V281.062H1460.3V278.849H1461.6V281.062H1463.55Z" fill="white"/>
<path opacity="0.4" d="M1463.55 298.773V300.249H1461.6V302.463H1460.3V300.249H1458.34V298.773H1460.3V296.559H1461.6V298.773H1463.55Z" fill="white"/>
<path opacity="0.4" d="M1463.55 316.484V317.959H1461.6V320.174H1460.3V317.959H1458.34V316.484H1460.3V314.27H1461.6V316.484H1463.55Z" fill="white"/>
<path opacity="0.4" d="M1463.55 334.195V335.671H1461.6V337.884H1460.3V335.671H1458.34V334.195H1460.3V331.98H1461.6V334.195H1463.55Z" fill="white"/>
<path opacity="0.4" d="M1463.55 351.905V353.381H1461.6V355.595H1460.3V353.381H1458.34V351.905H1460.3V349.691H1461.6V351.905H1463.55Z" fill="white"/>
<path opacity="0.4" d="M1463.55 369.616V371.092H1461.6V373.306H1460.3V371.092H1458.34V369.616H1460.3V367.403H1461.6V369.616H1463.55Z" fill="white"/>
<path opacity="0.4" d="M1463.55 387.327V388.803H1461.6V391.017H1460.3V388.803H1458.34V387.327H1460.3V385.114H1461.6V387.327H1463.55Z" fill="white"/>
<path opacity="0.4" d="M1463.55 405.038V406.513H1461.6V408.727H1460.3V406.513H1458.34V405.038H1460.3V402.824H1461.6V405.038H1463.55Z" fill="white"/>
<path opacity="0.4" d="M1463.55 422.749V424.225H1461.6V426.438H1460.3V424.225H1458.34V422.749H1460.3V420.535H1461.6V422.749H1463.55Z" fill="white"/>
<path opacity="0.4" d="M1463.55 440.459V441.935H1461.6V444.149H1460.3V441.935H1458.34V440.459H1460.3V438.245H1461.6V440.459H1463.55Z" fill="white"/>
<path opacity="0.4" d="M1463.55 458.17V459.646H1461.6V461.86H1460.3V459.646H1458.34V458.17H1460.3V455.957H1461.6V458.17H1463.55Z" fill="white"/>
<path opacity="0.4" d="M1463.55 475.881V477.357H1461.6V479.571H1460.3V477.357H1458.34V475.881H1460.3V473.667H1461.6V475.881H1463.55Z" fill="white"/>
<path opacity="0.4" d="M1463.55 493.592V495.067H1461.6V497.281H1460.3V495.067H1458.34V493.592H1460.3V491.378H1461.6V493.592H1463.55Z" fill="white"/>
<path opacity="0.4" d="M1447.93 157.087V158.563H1445.98V160.776H1444.68V158.563H1442.72V157.087H1444.68V154.873H1445.98V157.087H1447.93Z" fill="white"/>
<path opacity="0.4" d="M1447.93 174.798V176.274H1445.98V178.488H1444.68V176.274H1442.72V174.798H1444.68V172.584H1445.98V174.798H1447.93Z" fill="white"/>
<path opacity="0.4" d="M1447.93 192.508V193.984H1445.98V196.198H1444.68V193.984H1442.72V192.508H1444.68V190.295H1445.98V192.508H1447.93Z" fill="white"/>
<path opacity="0.4" d="M1447.93 210.22V211.695H1445.98V213.909H1444.68V211.695H1442.72V210.22H1444.68V208.005H1445.98V210.22H1447.93Z" fill="white"/>
<path opacity="0.4" d="M1447.93 227.93V229.407H1445.98V231.62H1444.68V229.407H1442.72V227.93H1444.68V225.716H1445.98V227.93H1447.93Z" fill="white"/>
<path opacity="0.4" d="M1447.93 245.641V247.117H1445.98V249.33H1444.68V247.117H1442.72V245.641H1444.68V243.426H1445.98V245.641H1447.93Z" fill="white"/>
<path opacity="0.4" d="M1447.93 263.351V264.828H1445.98V267.042H1444.68V264.828H1442.72V263.351H1444.68V261.138H1445.98V263.351H1447.93Z" fill="white"/>
<path opacity="0.4" d="M1447.93 281.062V282.538H1445.98V284.753H1444.68V282.538H1442.72V281.062H1444.68V278.849H1445.98V281.062H1447.93Z" fill="white"/>
<path opacity="0.4" d="M1447.93 298.773V300.249H1445.98V302.463H1444.68V300.249H1442.72V298.773H1444.68V296.559H1445.98V298.773H1447.93Z" fill="white"/>
<path opacity="0.4" d="M1447.93 316.484V317.959H1445.98V320.174H1444.68V317.959H1442.72V316.484H1444.68V314.27H1445.98V316.484H1447.93Z" fill="white"/>
<path opacity="0.4" d="M1447.93 334.195V335.671H1445.98V337.884H1444.68V335.671H1442.72V334.195H1444.68V331.98H1445.98V334.195H1447.93Z" fill="white"/>
<path opacity="0.4" d="M1447.93 351.905V353.381H1445.98V355.595H1444.68V353.381H1442.72V351.905H1444.68V349.691H1445.98V351.905H1447.93Z" fill="white"/>
<path opacity="0.4" d="M1447.93 369.616V371.092H1445.98V373.306H1444.68V371.092H1442.72V369.616H1444.68V367.403H1445.98V369.616H1447.93Z" fill="white"/>
<path opacity="0.4" d="M1447.93 387.327V388.803H1445.98V391.017H1444.68V388.803H1442.72V387.327H1444.68V385.114H1445.98V387.327H1447.93Z" fill="white"/>
<path opacity="0.4" d="M1447.93 405.038V406.513H1445.98V408.727H1444.68V406.513H1442.72V405.038H1444.68V402.824H1445.98V405.038H1447.93Z" fill="white"/>
<path opacity="0.4" d="M1447.93 422.749V424.225H1445.98V426.438H1444.68V424.225H1442.72V422.749H1444.68V420.535H1445.98V422.749H1447.93Z" fill="white"/>
<path opacity="0.4" d="M1447.93 440.459V441.935H1445.98V444.149H1444.68V441.935H1442.72V440.459H1444.68V438.245H1445.98V440.459H1447.93Z" fill="white"/>
<path opacity="0.4" d="M1447.93 458.17V459.646H1445.98V461.86H1444.68V459.646H1442.72V458.17H1444.68V455.957H1445.98V458.17H1447.93Z" fill="white"/>
<path opacity="0.4" d="M1447.93 475.881V477.357H1445.98V479.571H1444.68V477.357H1442.72V475.881H1444.68V473.667H1445.98V475.881H1447.93Z" fill="white"/>
<path opacity="0.4" d="M1447.93 493.592V495.067H1445.98V497.281H1444.68V495.067H1442.72V493.592H1444.68V491.378H1445.98V493.592H1447.93Z" fill="white"/>
<path opacity="0.4" d="M1432.31 157.087V158.563H1430.36V160.776H1429.06V158.563H1427.1V157.087H1429.06V154.873H1430.36V157.087H1432.31Z" fill="white"/>
<path opacity="0.4" d="M1432.31 174.798V176.274H1430.36V178.488H1429.06V176.274H1427.1V174.798H1429.06V172.584H1430.36V174.798H1432.31Z" fill="white"/>
<path opacity="0.4" d="M1432.31 192.508V193.984H1430.36V196.198H1429.06V193.984H1427.1V192.508H1429.06V190.295H1430.36V192.508H1432.31Z" fill="white"/>
<path opacity="0.4" d="M1432.31 210.22V211.695H1430.36V213.909H1429.06V211.695H1427.1V210.22H1429.06V208.005H1430.36V210.22H1432.31Z" fill="white"/>
<path opacity="0.4" d="M1432.31 227.93V229.407H1430.36V231.62H1429.06V229.407H1427.1V227.93H1429.06V225.716H1430.36V227.93H1432.31Z" fill="white"/>
<path opacity="0.4" d="M1432.31 245.641V247.117H1430.36V249.33H1429.06V247.117H1427.1V245.641H1429.06V243.426H1430.36V245.641H1432.31Z" fill="white"/>
<path opacity="0.4" d="M1432.31 263.351V264.828H1430.36V267.042H1429.06V264.828H1427.1V263.351H1429.06V261.138H1430.36V263.351H1432.31Z" fill="white"/>
<path opacity="0.4" d="M1432.31 281.062V282.538H1430.36V284.753H1429.06V282.538H1427.1V281.062H1429.06V278.849H1430.36V281.062H1432.31Z" fill="white"/>
<path opacity="0.4" d="M1432.31 298.773V300.249H1430.36V302.463H1429.06V300.249H1427.1V298.773H1429.06V296.559H1430.36V298.773H1432.31Z" fill="white"/>
<path opacity="0.4" d="M1432.31 316.484V317.959H1430.36V320.174H1429.06V317.959H1427.1V316.484H1429.06V314.27H1430.36V316.484H1432.31Z" fill="white"/>
<path opacity="0.4" d="M1432.31 334.195V335.671H1430.36V337.884H1429.06V335.671H1427.1V334.195H1429.06V331.98H1430.36V334.195H1432.31Z" fill="white"/>
<path opacity="0.4" d="M1432.31 351.905V353.381H1430.36V355.595H1429.06V353.381H1427.1V351.905H1429.06V349.691H1430.36V351.905H1432.31Z" fill="white"/>
<path opacity="0.4" d="M1432.31 369.616V371.092H1430.36V373.306H1429.06V371.092H1427.1V369.616H1429.06V367.403H1430.36V369.616H1432.31Z" fill="white"/>
<path opacity="0.4" d="M1432.31 387.327V388.803H1430.36V391.017H1429.06V388.803H1427.1V387.327H1429.06V385.114H1430.36V387.327H1432.31Z" fill="white"/>
<path opacity="0.4" d="M1432.31 405.038V406.513H1430.36V408.727H1429.06V406.513H1427.1V405.038H1429.06V402.824H1430.36V405.038H1432.31Z" fill="white"/>
<path opacity="0.4" d="M1432.31 422.749V424.225H1430.36V426.438H1429.06V424.225H1427.1V422.749H1429.06V420.535H1430.36V422.749H1432.31Z" fill="white"/>
<path opacity="0.4" d="M1432.31 440.459V441.935H1430.36V444.149H1429.06V441.935H1427.1V440.459H1429.06V438.245H1430.36V440.459H1432.31Z" fill="white"/>
<path opacity="0.4" d="M1432.31 458.17V459.646H1430.36V461.86H1429.06V459.646H1427.1V458.17H1429.06V455.957H1430.36V458.17H1432.31Z" fill="white"/>
<path opacity="0.4" d="M1432.31 475.881V477.357H1430.36V479.571H1429.06V477.357H1427.1V475.881H1429.06V473.667H1430.36V475.881H1432.31Z" fill="white"/>
<path opacity="0.4" d="M1432.31 493.592V495.067H1430.36V497.281H1429.06V495.067H1427.1V493.592H1429.06V491.378H1430.36V493.592H1432.31Z" fill="white"/>
<path opacity="0.4" d="M1416.69 157.087V158.563H1414.74V160.776H1413.44V158.563H1411.48V157.087H1413.44V154.873H1414.74V157.087H1416.69Z" fill="white"/>
<path opacity="0.4" d="M1416.69 174.798V176.274H1414.74V178.488H1413.44V176.274H1411.48V174.798H1413.44V172.584H1414.74V174.798H1416.69Z" fill="white"/>
<path opacity="0.4" d="M1416.69 192.508V193.984H1414.74V196.198H1413.44V193.984H1411.48V192.508H1413.44V190.295H1414.74V192.508H1416.69Z" fill="white"/>
<path opacity="0.4" d="M1416.69 210.22V211.695H1414.74V213.909H1413.44V211.695H1411.48V210.22H1413.44V208.005H1414.74V210.22H1416.69Z" fill="white"/>
<path opacity="0.4" d="M1416.69 227.93V229.407H1414.74V231.62H1413.44V229.407H1411.48V227.93H1413.44V225.716H1414.74V227.93H1416.69Z" fill="white"/>
<path opacity="0.4" d="M1416.69 245.641V247.117H1414.74V249.33H1413.44V247.117H1411.48V245.641H1413.44V243.426H1414.74V245.641H1416.69Z" fill="white"/>
<path opacity="0.4" d="M1416.69 263.351V264.828H1414.74V267.042H1413.44V264.828H1411.48V263.351H1413.44V261.138H1414.74V263.351H1416.69Z" fill="white"/>
<path opacity="0.4" d="M1416.69 281.062V282.538H1414.74V284.753H1413.44V282.538H1411.48V281.062H1413.44V278.849H1414.74V281.062H1416.69Z" fill="white"/>
<path opacity="0.4" d="M1416.69 298.773V300.249H1414.74V302.463H1413.44V300.249H1411.48V298.773H1413.44V296.559H1414.74V298.773H1416.69Z" fill="white"/>
<path opacity="0.4" d="M1416.69 316.484V317.959H1414.74V320.174H1413.44V317.959H1411.48V316.484H1413.44V314.27H1414.74V316.484H1416.69Z" fill="white"/>
<path opacity="0.4" d="M1416.69 334.195V335.671H1414.74V337.884H1413.44V335.671H1411.48V334.195H1413.44V331.98H1414.74V334.195H1416.69Z" fill="white"/>
<path opacity="0.4" d="M1416.69 351.905V353.381H1414.74V355.595H1413.44V353.381H1411.48V351.905H1413.44V349.691H1414.74V351.905H1416.69Z" fill="white"/>
<path opacity="0.4" d="M1416.69 369.616V371.092H1414.74V373.306H1413.44V371.092H1411.48V369.616H1413.44V367.403H1414.74V369.616H1416.69Z" fill="white"/>
<path opacity="0.4" d="M1416.69 387.327V388.803H1414.74V391.017H1413.44V388.803H1411.48V387.327H1413.44V385.114H1414.74V387.327H1416.69Z" fill="white"/>
<path opacity="0.4" d="M1416.69 405.038V406.513H1414.74V408.727H1413.44V406.513H1411.48V405.038H1413.44V402.824H1414.74V405.038H1416.69Z" fill="white"/>
<path opacity="0.4" d="M1416.69 422.749V424.225H1414.74V426.438H1413.44V424.225H1411.48V422.749H1413.44V420.535H1414.74V422.749H1416.69Z" fill="white"/>
<path opacity="0.4" d="M1416.69 440.459V441.935H1414.74V444.149H1413.44V441.935H1411.48V440.459H1413.44V438.245H1414.74V440.459H1416.69Z" fill="white"/>
<path opacity="0.4" d="M1416.69 458.17V459.646H1414.74V461.86H1413.44V459.646H1411.48V458.17H1413.44V455.957H1414.74V458.17H1416.69Z" fill="white"/>
<path opacity="0.4" d="M1416.69 475.881V477.357H1414.74V479.571H1413.44V477.357H1411.48V475.881H1413.44V473.667H1414.74V475.881H1416.69Z" fill="white"/>
<path opacity="0.4" d="M1416.69 493.592V495.067H1414.74V497.281H1413.44V495.067H1411.48V493.592H1413.44V491.378H1414.74V493.592H1416.69Z" fill="white"/>
<path opacity="0.4" d="M1401.07 157.087V158.563H1399.12V160.776H1397.81V158.563H1395.86V157.087H1397.81V154.873H1399.12V157.087H1401.07Z" fill="white"/>
<path opacity="0.4" d="M1401.07 174.798V176.274H1399.12V178.488H1397.81V176.274H1395.86V174.798H1397.81V172.584H1399.12V174.798H1401.07Z" fill="white"/>
<path opacity="0.4" d="M1401.07 192.508V193.984H1399.12V196.198H1397.81V193.984H1395.86V192.508H1397.81V190.295H1399.12V192.508H1401.07Z" fill="white"/>
<path opacity="0.4" d="M1401.07 210.22V211.695H1399.12V213.909H1397.81V211.695H1395.86V210.22H1397.81V208.005H1399.12V210.22H1401.07Z" fill="white"/>
<path opacity="0.4" d="M1401.07 227.93V229.407H1399.12V231.62H1397.81V229.407H1395.86V227.93H1397.81V225.716H1399.12V227.93H1401.07Z" fill="white"/>
<path opacity="0.4" d="M1401.07 245.641V247.117H1399.12V249.33H1397.81V247.117H1395.86V245.641H1397.81V243.426H1399.12V245.641H1401.07Z" fill="white"/>
<path opacity="0.4" d="M1401.07 263.351V264.828H1399.12V267.042H1397.81V264.828H1395.86V263.351H1397.81V261.138H1399.12V263.351H1401.07Z" fill="white"/>
<path opacity="0.4" d="M1401.07 281.062V282.538H1399.12V284.753H1397.81V282.538H1395.86V281.062H1397.81V278.849H1399.12V281.062H1401.07Z" fill="white"/>
<path opacity="0.4" d="M1401.07 298.773V300.249H1399.12V302.463H1397.81V300.249H1395.86V298.773H1397.81V296.559H1399.12V298.773H1401.07Z" fill="white"/>
<path opacity="0.4" d="M1401.07 316.484V317.959H1399.12V320.174H1397.81V317.959H1395.86V316.484H1397.81V314.27H1399.12V316.484H1401.07Z" fill="white"/>
<path opacity="0.4" d="M1401.07 334.195V335.671H1399.12V337.884H1397.81V335.671H1395.86V334.195H1397.81V331.98H1399.12V334.195H1401.07Z" fill="white"/>
<path opacity="0.4" d="M1401.07 351.905V353.381H1399.12V355.595H1397.81V353.381H1395.86V351.905H1397.81V349.691H1399.12V351.905H1401.07Z" fill="white"/>
<path opacity="0.4" d="M1401.07 369.616V371.092H1399.12V373.306H1397.81V371.092H1395.86V369.616H1397.81V367.403H1399.12V369.616H1401.07Z" fill="white"/>
<path opacity="0.4" d="M1401.07 387.327V388.803H1399.12V391.017H1397.81V388.803H1395.86V387.327H1397.81V385.114H1399.12V387.327H1401.07Z" fill="white"/>
<path opacity="0.4" d="M1401.07 405.038V406.513H1399.12V408.727H1397.81V406.513H1395.86V405.038H1397.81V402.824H1399.12V405.038H1401.07Z" fill="white"/>
<path opacity="0.4" d="M1401.07 422.749V424.225H1399.12V426.438H1397.81V424.225H1395.86V422.749H1397.81V420.535H1399.12V422.749H1401.07Z" fill="white"/>
<path opacity="0.4" d="M1401.07 440.459V441.935H1399.12V444.149H1397.81V441.935H1395.86V440.459H1397.81V438.245H1399.12V440.459H1401.07Z" fill="white"/>
<path opacity="0.4" d="M1401.07 458.17V459.646H1399.12V461.86H1397.81V459.646H1395.86V458.17H1397.81V455.957H1399.12V458.17H1401.07Z" fill="white"/>
<path opacity="0.4" d="M1401.07 475.881V477.357H1399.12V479.571H1397.81V477.357H1395.86V475.881H1397.81V473.667H1399.12V475.881H1401.07Z" fill="white"/>
<path opacity="0.4" d="M1401.07 493.592V495.067H1399.12V497.281H1397.81V495.067H1395.86V493.592H1397.81V491.378H1399.12V493.592H1401.07Z" fill="white"/>
<path opacity="0.4" d="M1385.45 157.087V158.563H1383.5V160.776H1382.19V158.563H1380.24V157.087H1382.19V154.873H1383.5V157.087H1385.45Z" fill="white"/>
<path opacity="0.4" d="M1385.45 174.798V176.274H1383.5V178.488H1382.19V176.274H1380.24V174.798H1382.19V172.584H1383.5V174.798H1385.45Z" fill="white"/>
<path opacity="0.4" d="M1385.45 192.508V193.984H1383.5V196.198H1382.19V193.984H1380.24V192.508H1382.19V190.295H1383.5V192.508H1385.45Z" fill="white"/>
<path opacity="0.4" d="M1385.45 210.22V211.695H1383.5V213.909H1382.19V211.695H1380.24V210.22H1382.19V208.005H1383.5V210.22H1385.45Z" fill="white"/>
<path opacity="0.4" d="M1385.45 227.93V229.407H1383.5V231.62H1382.19V229.407H1380.24V227.93H1382.19V225.716H1383.5V227.93H1385.45Z" fill="white"/>
<path opacity="0.4" d="M1385.45 245.641V247.117H1383.5V249.33H1382.19V247.117H1380.24V245.641H1382.19V243.426H1383.5V245.641H1385.45Z" fill="white"/>
<path opacity="0.4" d="M1385.45 263.351V264.828H1383.5V267.042H1382.19V264.828H1380.24V263.351H1382.19V261.138H1383.5V263.351H1385.45Z" fill="white"/>
<path opacity="0.4" d="M1385.45 281.062V282.538H1383.5V284.753H1382.19V282.538H1380.24V281.062H1382.19V278.849H1383.5V281.062H1385.45Z" fill="white"/>
<path opacity="0.4" d="M1385.45 298.773V300.249H1383.5V302.463H1382.19V300.249H1380.24V298.773H1382.19V296.559H1383.5V298.773H1385.45Z" fill="white"/>
<path opacity="0.4" d="M1385.45 316.484V317.959H1383.5V320.174H1382.19V317.959H1380.24V316.484H1382.19V314.27H1383.5V316.484H1385.45Z" fill="white"/>
<path opacity="0.4" d="M1385.45 334.195V335.671H1383.5V337.884H1382.19V335.671H1380.24V334.195H1382.19V331.98H1383.5V334.195H1385.45Z" fill="white"/>
<path opacity="0.4" d="M1385.45 351.905V353.381H1383.5V355.595H1382.19V353.381H1380.24V351.905H1382.19V349.691H1383.5V351.905H1385.45Z" fill="white"/>
<path opacity="0.4" d="M1385.45 369.616V371.092H1383.5V373.306H1382.19V371.092H1380.24V369.616H1382.19V367.403H1383.5V369.616H1385.45Z" fill="white"/>
<path opacity="0.4" d="M1385.45 387.327V388.803H1383.5V391.017H1382.19V388.803H1380.24V387.327H1382.19V385.114H1383.5V387.327H1385.45Z" fill="white"/>
<path opacity="0.4" d="M1385.45 405.038V406.513H1383.5V408.727H1382.19V406.513H1380.24V405.038H1382.19V402.824H1383.5V405.038H1385.45Z" fill="white"/>
<path opacity="0.4" d="M1385.45 422.749V424.225H1383.5V426.438H1382.19V424.225H1380.24V422.749H1382.19V420.535H1383.5V422.749H1385.45Z" fill="white"/>
<path opacity="0.4" d="M1385.45 440.459V441.935H1383.5V444.149H1382.19V441.935H1380.24V440.459H1382.19V438.245H1383.5V440.459H1385.45Z" fill="white"/>
<path opacity="0.4" d="M1385.45 458.17V459.646H1383.5V461.86H1382.19V459.646H1380.24V458.17H1382.19V455.957H1383.5V458.17H1385.45Z" fill="white"/>
<path opacity="0.4" d="M1385.45 475.881V477.357H1383.5V479.571H1382.19V477.357H1380.24V475.881H1382.19V473.667H1383.5V475.881H1385.45Z" fill="white"/>
<path opacity="0.4" d="M1385.45 493.592V495.067H1383.5V497.281H1382.19V495.067H1380.24V493.592H1382.19V491.378H1383.5V493.592H1385.45Z" fill="white"/>
<path opacity="0.4" d="M1369.83 157.087V158.563H1367.88V160.776H1366.57V158.563H1364.62V157.087H1366.57V154.873H1367.88V157.087H1369.83Z" fill="white"/>
<path opacity="0.4" d="M1369.83 174.798V176.274H1367.88V178.488H1366.57V176.274H1364.62V174.798H1366.57V172.584H1367.88V174.798H1369.83Z" fill="white"/>
<path opacity="0.4" d="M1369.83 192.508V193.984H1367.88V196.198H1366.57V193.984H1364.62V192.508H1366.57V190.295H1367.88V192.508H1369.83Z" fill="white"/>
<path opacity="0.4" d="M1369.83 210.22V211.695H1367.88V213.909H1366.57V211.695H1364.62V210.22H1366.57V208.005H1367.88V210.22H1369.83Z" fill="white"/>
<path opacity="0.4" d="M1369.83 227.93V229.407H1367.88V231.62H1366.57V229.407H1364.62V227.93H1366.57V225.716H1367.88V227.93H1369.83Z" fill="white"/>
<path opacity="0.4" d="M1369.83 245.641V247.117H1367.88V249.33H1366.57V247.117H1364.62V245.641H1366.57V243.426H1367.88V245.641H1369.83Z" fill="white"/>
<path opacity="0.4" d="M1369.83 263.351V264.828H1367.88V267.042H1366.57V264.828H1364.62V263.351H1366.57V261.138H1367.88V263.351H1369.83Z" fill="white"/>
<path opacity="0.4" d="M1369.83 281.062V282.538H1367.88V284.753H1366.57V282.538H1364.62V281.062H1366.57V278.849H1367.88V281.062H1369.83Z" fill="white"/>
<path opacity="0.4" d="M1369.83 298.773V300.249H1367.88V302.463H1366.57V300.249H1364.62V298.773H1366.57V296.559H1367.88V298.773H1369.83Z" fill="white"/>
<path opacity="0.4" d="M1369.83 316.484V317.959H1367.88V320.174H1366.57V317.959H1364.62V316.484H1366.57V314.27H1367.88V316.484H1369.83Z" fill="white"/>
<path opacity="0.4" d="M1369.83 334.195V335.671H1367.88V337.884H1366.57V335.671H1364.62V334.195H1366.57V331.98H1367.88V334.195H1369.83Z" fill="white"/>
<path opacity="0.4" d="M1369.83 351.905V353.381H1367.88V355.595H1366.57V353.381H1364.62V351.905H1366.57V349.691H1367.88V351.905H1369.83Z" fill="white"/>
<path opacity="0.4" d="M1369.83 369.616V371.092H1367.88V373.306H1366.57V371.092H1364.62V369.616H1366.57V367.403H1367.88V369.616H1369.83Z" fill="white"/>
<path opacity="0.4" d="M1369.83 387.327V388.803H1367.88V391.017H1366.57V388.803H1364.62V387.327H1366.57V385.114H1367.88V387.327H1369.83Z" fill="white"/>
<path opacity="0.4" d="M1369.83 405.038V406.513H1367.88V408.727H1366.57V406.513H1364.62V405.038H1366.57V402.824H1367.88V405.038H1369.83Z" fill="white"/>
<path opacity="0.4" d="M1369.83 422.749V424.225H1367.88V426.438H1366.57V424.225H1364.62V422.749H1366.57V420.535H1367.88V422.749H1369.83Z" fill="white"/>
<path opacity="0.4" d="M1369.83 440.459V441.935H1367.88V444.149H1366.57V441.935H1364.62V440.459H1366.57V438.245H1367.88V440.459H1369.83Z" fill="white"/>
<path opacity="0.4" d="M1369.83 458.17V459.646H1367.88V461.86H1366.57V459.646H1364.62V458.17H1366.57V455.957H1367.88V458.17H1369.83Z" fill="white"/>
<path opacity="0.4" d="M1369.83 475.881V477.357H1367.88V479.571H1366.57V477.357H1364.62V475.881H1366.57V473.667H1367.88V475.881H1369.83Z" fill="white"/>
<path opacity="0.4" d="M1369.83 493.592V495.067H1367.88V497.281H1366.57V495.067H1364.62V493.592H1366.57V491.378H1367.88V493.592H1369.83Z" fill="white"/>
<path opacity="0.4" d="M1354.21 157.087V158.563H1352.25V160.776H1350.95V158.563H1349V157.087H1350.95V154.873H1352.25V157.087H1354.21Z" fill="white"/>
<path opacity="0.4" d="M1354.21 174.798V176.274H1352.25V178.488H1350.95V176.274H1349V174.798H1350.95V172.584H1352.25V174.798H1354.21Z" fill="white"/>
<path opacity="0.4" d="M1354.21 192.508V193.984H1352.25V196.198H1350.95V193.984H1349V192.508H1350.95V190.295H1352.25V192.508H1354.21Z" fill="white"/>
<path opacity="0.4" d="M1354.21 210.22V211.695H1352.25V213.909H1350.95V211.695H1349V210.22H1350.95V208.005H1352.25V210.22H1354.21Z" fill="white"/>
<path opacity="0.4" d="M1354.21 227.93V229.407H1352.25V231.62H1350.95V229.407H1349V227.93H1350.95V225.716H1352.25V227.93H1354.21Z" fill="white"/>
<path opacity="0.4" d="M1354.21 245.641V247.117H1352.25V249.33H1350.95V247.117H1349V245.641H1350.95V243.426H1352.25V245.641H1354.21Z" fill="white"/>
<path opacity="0.4" d="M1354.21 263.351V264.828H1352.25V267.042H1350.95V264.828H1349V263.351H1350.95V261.138H1352.25V263.351H1354.21Z" fill="white"/>
<path opacity="0.4" d="M1354.21 281.062V282.538H1352.25V284.753H1350.95V282.538H1349V281.062H1350.95V278.849H1352.25V281.062H1354.21Z" fill="white"/>
<path opacity="0.4" d="M1354.21 298.773V300.249H1352.25V302.463H1350.95V300.249H1349V298.773H1350.95V296.559H1352.25V298.773H1354.21Z" fill="white"/>
<path opacity="0.4" d="M1354.21 316.484V317.959H1352.25V320.174H1350.95V317.959H1349V316.484H1350.95V314.27H1352.25V316.484H1354.21Z" fill="white"/>
<path opacity="0.4" d="M1354.21 334.195V335.671H1352.25V337.884H1350.95V335.671H1349V334.195H1350.95V331.98H1352.25V334.195H1354.21Z" fill="white"/>
<path opacity="0.4" d="M1354.21 351.905V353.381H1352.25V355.595H1350.95V353.381H1349V351.905H1350.95V349.691H1352.25V351.905H1354.21Z" fill="white"/>
<path opacity="0.4" d="M1354.21 369.616V371.092H1352.25V373.306H1350.95V371.092H1349V369.616H1350.95V367.403H1352.25V369.616H1354.21Z" fill="white"/>
<path opacity="0.4" d="M1354.21 387.327V388.803H1352.25V391.017H1350.95V388.803H1349V387.327H1350.95V385.114H1352.25V387.327H1354.21Z" fill="white"/>
<path opacity="0.4" d="M1354.21 405.038V406.513H1352.25V408.727H1350.95V406.513H1349V405.038H1350.95V402.824H1352.25V405.038H1354.21Z" fill="white"/>
<path opacity="0.4" d="M1354.21 422.749V424.225H1352.25V426.438H1350.95V424.225H1349V422.749H1350.95V420.535H1352.25V422.749H1354.21Z" fill="white"/>
<path opacity="0.4" d="M1354.21 440.459V441.935H1352.25V444.149H1350.95V441.935H1349V440.459H1350.95V438.245H1352.25V440.459H1354.21Z" fill="white"/>
<path opacity="0.4" d="M1354.21 458.17V459.646H1352.25V461.86H1350.95V459.646H1349V458.17H1350.95V455.957H1352.25V458.17H1354.21Z" fill="white"/>
<path opacity="0.4" d="M1354.21 475.881V477.357H1352.25V479.571H1350.95V477.357H1349V475.881H1350.95V473.667H1352.25V475.881H1354.21Z" fill="white"/>
<path opacity="0.4" d="M1354.21 493.592V495.067H1352.25V497.281H1350.95V495.067H1349V493.592H1350.95V491.378H1352.25V493.592H1354.21Z" fill="white"/>
</g>
</g>
<mask id="mask1_0_1" style="mask-type:alpha" maskUnits="userSpaceOnUse" x="998" y="172" width="900" height="733">
<path d="M1898 172.107H998V904.055H1898V172.107Z" fill="#C4C4C4"/>
</mask>
<g mask="url(#mask1_0_1)">
</g>
<defs>
<linearGradient id="paint0_linear_0_1" x1="-32.5" y1="-21.7605" x2="2059.13" y2="1079.58" gradientUnits="userSpaceOnUse">
<stop stop-color="#1E3C72"/>
<stop offset="1" stop-color="#2A5298"/>
</linearGradient>
<linearGradient id="paint1_linear_0_1" x1="-32.5" y1="-21.6369" x2="2059.02" y2="1079.78" gradientUnits="userSpaceOnUse">
<stop stop-color="#1E3C72"/>
<stop offset="1" stop-color="#2A5298"/>
</linearGradient>
</defs>
</svg>
